<?xml version="1.0" encoding="UTF-8"?>
<svg xmlns="http://www.w3.org/2000/svg" xmlns:xlink="http://www.w3.org/1999/xlink" width="75pt" height="59pt" viewBox="0 0 75 59" version="1.1">
<g id="surface1">
<path style=" stroke:none;fill-rule:nonzero;fill:rgb(13.699341%,12.199402%,12.5%);fill-opacity:1;" d="M 7.445313 37.414063 L 13.828125 23.574219 L 8.511719 23.574219 L 8.511719 21.351563 L 16.960938 21.351563 L 10.636719 35.078125 L 17.035156 35.078125 L 17.035156 37.414063 L 7.445313 37.414063 "/>
<path style=" stroke:none;fill-rule:nonzero;fill:rgb(13.699341%,12.199402%,12.5%);fill-opacity:1;" d="M 22.550781 31.101563 L 26.046875 31.101563 L 24.761719 27.4375 C 24.6875 27.207031 24.609375 26.9375 24.53125 26.632813 C 24.453125 26.328125 24.371094 25.992188 24.292969 25.617188 C 24.222656 25.96875 24.152344 26.296875 24.070313 26.597656 C 23.996094 26.902344 23.917969 27.183594 23.839844 27.4375 Z M 28.1875 37.414063 L 26.769531 33.277344 L 21.796875 33.277344 L 20.34375 37.414063 L 18.203125 37.414063 L 24.273438 20.722656 L 30.339844 37.414063 L 28.1875 37.414063 "/>
<path style=" stroke:none;fill-rule:nonzero;fill:rgb(13.699341%,12.199402%,12.5%);fill-opacity:1;" d="M 32.089844 37.414063 L 32.089844 20.722656 L 40.054688 30.535156 C 40.273438 30.8125 40.492188 31.105469 40.71875 31.421875 C 40.941406 31.738281 41.171875 32.09375 41.417969 32.484375 L 41.417969 21.351563 L 43.296875 21.351563 L 43.296875 38.042969 L 35.171875 28.042969 C 34.957031 27.773438 34.746094 27.484375 34.546875 27.1875 C 34.339844 26.886719 34.148438 26.574219 33.964844 26.242188 L 33.964844 37.414063 L 32.089844 37.414063 "/>
<path style=" stroke:none;fill-rule:nonzero;fill:rgb(13.699341%,12.199402%,12.5%);fill-opacity:1;" d="M 47.777344 35.050781 L 49.492188 35.050781 C 50.433594 35.050781 51.144531 34.976563 51.613281 34.816406 C 52.085938 34.652344 52.496094 34.378906 52.84375 34.003906 C 53.316406 33.480469 53.671875 32.839844 53.910156 32.0625 C 54.148438 31.289063 54.265625 30.390625 54.265625 29.371094 C 54.265625 28.34375 54.148438 27.449219 53.910156 26.675781 C 53.671875 25.902344 53.316406 25.257813 52.84375 24.738281 C 52.488281 24.359375 52.066406 24.085938 51.570313 23.925781 C 51.078125 23.765625 50.304688 23.6875 49.25 23.6875 L 47.777344 23.6875 Z M 45.742188 37.414063 L 45.742188 21.351563 L 48.488281 21.351563 C 50.277344 21.351563 51.535156 21.464844 52.265625 21.695313 C 52.992188 21.925781 53.628906 22.3125 54.179688 22.851563 C 54.902344 23.5625 55.453125 24.472656 55.828125 25.585938 C 56.203125 26.695313 56.386719 27.964844 56.386719 29.394531 C 56.386719 30.820313 56.203125 32.082031 55.828125 33.179688 C 55.453125 34.28125 54.902344 35.191406 54.179688 35.910156 C 53.628906 36.449219 53.007813 36.835938 52.304688 37.066406 C 51.605469 37.296875 50.515625 37.414063 49.035156 37.414063 L 45.742188 37.414063 "/>
<path style=" stroke:none;fill-rule:nonzero;fill:rgb(13.699341%,12.199402%,12.5%);fill-opacity:1;" d="M 57.449219 21.351563 L 59.46875 21.351563 L 59.46875 31.101563 C 59.46875 32.546875 59.726563 33.640625 60.25 34.363281 C 60.773438 35.09375 61.554688 35.457031 62.59375 35.457031 C 63.625 35.457031 64.402344 35.09375 64.925781 34.363281 C 65.449219 33.640625 65.710938 32.546875 65.710938 31.101563 L 65.710938 21.351563 L 67.742188 21.351563 L 67.742188 31.34375 C 67.742188 33.515625 67.316406 35.144531 66.460938 36.222656 C 65.605469 37.300781 64.3125 37.839844 62.589844 37.839844 C 60.863281 37.839844 59.578125 37.300781 58.726563 36.226563 C 57.878906 35.152344 57.449219 33.523438 57.449219 31.34375 L 57.449219 21.351563 "/>
<path style=" stroke:none;fill-rule:evenodd;fill:rgb(0%,65.098572%,31.399536%);fill-opacity:1;" d="M 30.554688 29.082031 C 28.714844 30.144531 28.632813 31.550781 28.488281 33.394531 C 28.097656 38.40625 23.238281 37.3125 23.253906 34.402344 L 20.882813 37.054688 L 20.441406 36.734375 L 23.050781 34.101563 C 16.765625 34.582031 22.382813 25.839844 30.554688 29.082031 Z M 23.273438 34.117188 L 23.277344 34.082031 C 23.253906 34.085938 23.238281 34.085938 23.21875 34.089844 L 23.273438 34.117188 "/>
</g>
</svg>
