<svg id="visual" viewBox="0 0 900 600" width="900" height="600" xmlns="http://www.w3.org/2000/svg" xmlns:xlink="http://www.w3.org/1999/xlink" version="1.1"><rect x="0" y="0" width="900" height="600" fill="#FF0066"></rect><g transform="translate(441.1042893657585 289.25500370545876)"><path d="M251.7 -302.3C318.6 -243.7 360.2 -157.3 377 -65.9C393.7 25.4 385.7 121.7 344.3 204C303 286.3 228.5 354.6 141.3 385C54 415.3 -45.8 407.8 -123.2 367.2C-200.5 326.5 -255.3 252.8 -299.9 173.9C-344.6 95 -379.1 11 -363.6 -61.9C-348.1 -134.8 -282.5 -196.7 -213.6 -254.9C-144.6 -313 -72.3 -367.5 10 -379.5C92.3 -391.4 184.7 -360.8 251.7 -302.3" fill="#BB004B"></path></g></svg>