<?xml version="1.0" encoding="utf-8"?>
<!-- Generator: Adobe Illustrator 18.1.0, SVG Export Plug-In . SVG Version: 6.00 Build 0)  -->
<svg version="1.1" id="Layer_1" xmlns="http://www.w3.org/2000/svg" xmlns:xlink="http://www.w3.org/1999/xlink" x="0px" y="0px"
	 viewBox="0 0 1500 1500" enable-background="new 0 0 1500 1500" xml:space="preserve">
<g>
	<path fill="#FFB602" d="M1207.2,774.6c0,288.8-234.1,522.9-522.9,522.9c-288.8,0-522.9-234.1-522.9-522.9
		c0-288.8,234.1-522.9,522.9-522.9C973.1,251.7,1207.2,485.8,1207.2,774.6z"/>
	<g opacity="0.38">
		<path fill="#FFFFFF" d="M1253.8,589.5c0.4-7,70.9,218.4-316.2,190.1c-387.1-28.3-717.1-85.6-759.4,339.2
			c0,0-84.1-285.9,236.9-412.8c0,0,196.1-42.7,401.1-9.5C816.2,696.6,1243,761,1253.8,589.5z"/>
		<path fill="#FFFFFF" d="M1083,235.6c0,0-606.8-58.4-566.4,416.5l91.5,1.8C608.2,653.9,525.4,339.6,1083,235.6z"/>
		<path fill="#FFFFFF" d="M632.4,787.8c0,0,213.1,473.2-273.2,618.8c0,0,373.2-219.1,191.1-607.9L632.4,787.8z"/>
		<path fill="#FFFFFF" d="M864.7,290.7l269.5,388.4c0,0-34.9,16.6-44.3,14.4L814.1,296.6L864.7,290.7z"/>
		<polyline fill="#FFFFFF" points="741.1,351.8 983.7,684.2 931.1,683.8 698.8,377.8 		"/>
		<polyline fill="#FFFFFF" points="636.1,448.9 804.8,677.6 743.8,678.1 608.4,498.1 		"/>
		<polyline fill="#FFFFFF" points="419.9,774.5 570.4,904.1 586.7,981.1 374.5,791 		"/>
		<polyline fill="#FFFFFF" points="291,835.6 585.9,1075.8 571.8,1134.6 251.8,865.8 		"/>
		<polyline fill="#FFFFFF" points="215.2,954.8 534,1207.3 501.3,1256.8 175.5,984.8 		"/>
	</g>
	<g>
		<path fill="#255AA8" d="M1243.4,573.8c0.4-7,70.9,218.4-316.2,190.1c-387.1-28.3-717.1-85.6-759.4,339.2
			c0,0-84.1-285.9,236.9-412.8c0,0,196.1-42.7,401.1-9.5C805.7,680.9,1232.5,745.3,1243.4,573.8z"/>
		<path fill="#4CA950" d="M1072.5,219.9c0,0-606.8-58.5-566.4,416.5l91.5,1.8C597.7,638.2,514.9,323.9,1072.5,219.9z"/>
		<path fill="#4CA950" d="M621.9,772c0,0,213.1,473.2-273.3,618.8c0,0,373.3-219.1,191.1-607.9L621.9,772z"/>
		<path fill="#4CA950" d="M854.2,275l269.5,388.4c0,0-34.9,16.6-44.3,14.4L803.7,280.9L854.2,275z"/>
		<polyline fill="#4CA950" points="730.6,336.1 973.2,668.5 920.6,668.1 688.3,362.1 		"/>
		<polyline fill="#4CA950" points="625.6,433.2 794.3,661.8 733.3,662.4 597.9,482.4 		"/>
		<polyline fill="#255AA8" points="409.4,758.8 560,888.4 576.2,965.3 364,775.3 		"/>
		<polyline fill="#255AA8" points="280.5,819.9 575.4,1060.1 561.3,1118.9 241.4,850.1 		"/>
		<polyline fill="#255AA8" points="204.7,939.1 523.5,1191.5 490.8,1241.1 165,969 		"/>
	</g>
	<g>
		<g>
			<path fill="#00A9DE" d="M406.8,233.1c0,45.3-36.7,82-82,82c-45.3,0-82-36.7-82-82c0-45.3,36.7-82,82-82
				C370,151,406.8,187.8,406.8,233.1z"/>
			<path opacity="0.54" fill="#FFFFFF" d="M344.4,194.6c0,9.9-8,17.9-17.9,17.9c-9.9,0-17.9-8-17.9-17.9c0-9.9,8-17.9,17.9-17.9
				C336.3,176.7,344.4,184.7,344.4,194.6z"/>
		</g>
		<g>
			<path fill="#00A9DE" d="M291.1,486.8c-21.9-21.9-21.9-57.3,0-79.2c21.9-21.9,57.3-21.9,79.2,0c21.9,21.9,21.9,57.3,0,79.2
				C348.4,508.7,312.9,508.7,291.1,486.8z"/>
			<path opacity="0.54" fill="#FFFFFF" d="M339.8,475.2c-4.8-4.8-4.8-12.5,0-17.3c4.8-4.8,12.5-4.8,17.3,0c4.8,4.8,4.8,12.5,0,17.3
				C352.3,480,344.5,480,339.8,475.2z"/>
		</g>
		<path fill="#86888B" d="M198.4,343.3c-1.9,1.6-4.7,1.3-6.3-0.6l0,0c-1.6-1.9-1.3-4.7,0.6-6.3l73.3-60.9c1.9-1.6,4.7-1.3,6.3,0.6
			l0,0c1.6,1.9,1.3,4.7-0.6,6.3L198.4,343.3z"/>
		<path fill="#86888B" d="M210.1,376.4c-2-1.4-2.5-4.2-1.1-6.2l0,0c1.4-2,4.2-2.5,6.2-1.1l77.9,54.9c2,1.4,2.5,4.2,1.1,6.2l0,0
			c-1.4,2-4.2,2.5-6.2,1.1L210.1,376.4z"/>
		<g>
			<path fill="#4CA950" d="M229,349.3c0,28.3-23,51.3-51.3,51.3s-51.3-23-51.3-51.3c0-28.3,23-51.3,51.3-51.3S229,321,229,349.3z"/>
			<path opacity="0.54" fill="#FFFFFF" d="M163.2,331.4c0,6.1-5,11.1-11.1,11.1c-6.1,0-11.1-5-11.1-11.1c0-6.1,5-11.1,11.1-11.1
				C158.2,320.2,163.2,325.2,163.2,331.4z"/>
		</g>
	</g>
	<g>
		<g>
			<path fill="#6CAB36" d="M816.6,1068.8c32-32,84-32,116,0c32,32,32,84,0,116s-84,32-116,0S784.6,1100.9,816.6,1068.8z"/>
			<path opacity="0.54" fill="#FFFFFF" d="M833.5,1140.2c7-7,18.4-7,25.4,0c7,7,7,18.4,0,25.4c-7,7-18.4,7-25.4,0
				C826.5,1158.5,826.5,1147.2,833.5,1140.2z"/>
		</g>
		<g>
			<path fill="#6CAB36" d="M1077.8,971.3c0,30.9-25.1,56-56,56c-30.9,0-56-25.1-56-56c0-30.9,25.1-56,56-56
				C1052.7,915.2,1077.8,940.3,1077.8,971.3z"/>
			<path opacity="0.54" fill="#FFFFFF" d="M1035.2,945c0,6.8-5.5,12.3-12.3,12.3c-6.8,0-12.2-5.5-12.2-12.3s5.5-12.2,12.3-12.2
				C1029.7,932.7,1035.2,938.2,1035.2,945z"/>
		</g>
		<path fill="#86888B" d="M1041.8,1138.2c2.5,0.2,4.3,2.4,4,4.9l0,0c-0.2,2.5-2.4,4.3-4.9,4l-94.9-8.8c-2.5-0.2-4.3-2.4-4-4.9l0,0
			c0.2-2.5,2.4-4.3,4.9-4L1041.8,1138.2z"/>
		<path fill="#86888B" d="M1057.1,1106.5c0.4,2.4-1.2,4.7-3.6,5.2l0,0c-2.4,0.4-4.7-1.2-5.2-3.6l-16.2-93.9
			c-0.4-2.4,1.2-4.8,3.6-5.2l0,0c2.4-0.4,4.7,1.2,5.2,3.6L1057.1,1106.5z"/>
		<g>
			<path fill="#00A9DE" d="M1024.5,1112.4c20-20,52.5-20,72.5,0c20,20,20,52.5,0,72.5c-20,20-52.5,20-72.5,0
				C1004.4,1164.8,1004.4,1132.4,1024.5,1112.4z"/>
			<path opacity="0.54" fill="#FFFFFF" d="M1058.3,1171.6c4.3-4.4,11.4-4.4,15.7,0c4.3,4.3,4.3,11.4,0,15.7
				c-4.3,4.3-11.4,4.3-15.7,0C1054,1182.9,1054,1175.9,1058.3,1171.6z"/>
		</g>
	</g>
	<g>
		<path fill="#255AA8" d="M1179.9,786.9v28.8h28.2v5h-28.2v28.8h-5v-28.8h-28.3v-5h28.3v-28.8H1179.9z"/>
	</g>
	<g>
		<path fill="#255AA8" d="M1299.8,891.3v28.8h28.2v5h-28.2V954h-5v-28.8h-28.3v-5h28.3v-28.8H1299.8z"/>
	</g>
	<g>
		<path fill="#255AA8" d="M1234,976.4v28.8h28.2v5H1234v28.8h-5v-28.8h-28.3v-5h28.3v-28.8H1234z"/>
	</g>
	<g>
		<path fill="#255AA8" d="M1306.6,771.4v18.2h17.8v3.2h-17.8v18.1h-3.2v-18.1h-17.8v-3.2h17.8v-18.2H1306.6z"/>
	</g>
	<g>
		<path fill="#255AA8" d="M1338.4,607.6V636h27.7v4.9h-27.7v28.3h-5v-28.3h-27.8V636h27.8v-28.4H1338.4z"/>
	</g>
	<g>
		<path fill="#255AA8" d="M1353.9,1040.7v28.4h27.7v4.9h-27.7v28.3h-4.9V1074h-27.8v-4.9h27.8v-28.4H1353.9z"/>
	</g>
	<g>
		<path fill="#255AA8" d="M151.2,592.1v28.4h27.7v4.9h-27.7v28.3h-5v-28.3h-27.8v-4.9h27.8v-28.4H151.2z"/>
	</g>
	<g>
		<path fill="#255AA8" d="M321.3,595.9v28.4h27.7v4.9h-27.7v28.3h-4.9v-28.3h-27.8v-4.9h27.8v-28.4H321.3z"/>
	</g>
	<g>
		<path fill="#255AA8" d="M468.3,333v28.4H496v4.9h-27.7v28.3h-5v-28.3h-27.8v-4.9h27.8V333H468.3z"/>
	</g>
</g>
</svg>
